<svg id="visual" viewBox="0 0 900 600" width="900" height="600" xmlns="http://www.w3.org/2000/svg" xmlns:xlink="http://www.w3.org/1999/xlink" version="1.1"><rect x="0" y="0" width="900" height="600" fill="#001220"></rect><path d="M0 400L11.5 402C23 404 46 408 69 415.2C92 422.3 115 432.7 138.2 432.7C161.3 432.7 184.7 422.3 207.8 421.7C231 421 254 430 277 428.5C300 427 323 415 346 414.2C369 413.3 392 423.7 415.2 430C438.3 436.3 461.7 438.7 484.8 438.8C508 439 531 437 554 431.8C577 426.7 600 418.3 623 412C646 405.7 669 401.3 692.2 400.5C715.3 399.7 738.7 402.3 761.8 405C785 407.7 808 410.3 831 415.2C854 420 877 427 888.5 430.5L900 434L900 601L888.5 601C877 601 854 601 831 601C808 601 785 601 761.8 601C738.7 601 715.3 601 692.2 601C669 601 646 601 623 601C600 601 577 601 554 601C531 601 508 601 484.8 601C461.7 601 438.3 601 415.2 601C392 601 369 601 346 601C323 601 300 601 277 601C254 601 231 601 207.8 601C184.7 601 161.3 601 138.2 601C115 601 92 601 69 601C46 601 23 601 11.5 601L0 601Z" fill="#4facf7"></path><path d="M0 481L11.5 481C23 481 46 481 69 474.5C92 468 115 455 138.2 454.5C161.3 454 184.7 466 207.8 468.5C231 471 254 464 277 462C300 460 323 463 346 461.3C369 459.7 392 453.3 415.2 450.3C438.3 447.3 461.7 447.7 484.8 449.7C508 451.7 531 455.3 554 460.7C577 466 600 473 623 472.3C646 471.7 669 463.3 692.2 464.3C715.3 465.3 738.7 475.7 761.8 479.3C785 483 808 480 831 475.2C854 470.3 877 463.7 888.5 460.3L900 457L900 601L888.5 601C877 601 854 601 831 601C808 601 785 601 761.8 601C738.7 601 715.3 601 692.2 601C669 601 646 601 623 601C600 601 577 601 554 601C531 601 508 601 484.8 601C461.7 601 438.3 601 415.2 601C392 601 369 601 346 601C323 601 300 601 277 601C254 601 231 601 207.8 601C184.7 601 161.3 601 138.2 601C115 601 92 601 69 601C46 601 23 601 11.5 601L0 601Z" fill="#3b97fd"></path><path d="M0 509L11.5 508.8C23 508.7 46 508.3 69 505.3C92 502.3 115 496.7 138.2 493.3C161.3 490 184.7 489 207.8 493C231 497 254 506 277 510C300 514 323 513 346 512.2C369 511.3 392 510.7 415.2 508.7C438.3 506.7 461.7 503.3 484.8 504.3C508 505.3 531 510.7 554 513.3C577 516 600 516 623 511.8C646 507.7 669 499.3 692.2 500.7C715.3 502 738.7 513 761.8 519.2C785 525.3 808 526.7 831 522.5C854 518.3 877 508.7 888.5 503.8L900 499L900 601L888.5 601C877 601 854 601 831 601C808 601 785 601 761.8 601C738.7 601 715.3 601 692.2 601C669 601 646 601 623 601C600 601 577 601 554 601C531 601 508 601 484.8 601C461.7 601 438.3 601 415.2 601C392 601 369 601 346 601C323 601 300 601 277 601C254 601 231 601 207.8 601C184.7 601 161.3 601 138.2 601C115 601 92 601 69 601C46 601 23 601 11.5 601L0 601Z" fill="#4d7efd"></path><path d="M0 569L11.5 564.2C23 559.3 46 549.7 69 548C92 546.3 115 552.7 138.2 551.8C161.3 551 184.7 543 207.8 539C231 535 254 535 277 535.7C300 536.3 323 537.7 346 543.5C369 549.3 392 559.7 415.2 564C438.3 568.3 461.7 566.7 484.8 561.8C508 557 531 549 554 547.3C577 545.7 600 550.3 623 550.2C646 550 669 545 692.2 546.3C715.3 547.7 738.7 555.3 761.8 560C785 564.7 808 566.3 831 563.8C854 561.3 877 554.7 888.5 551.3L900 548L900 601L888.5 601C877 601 854 601 831 601C808 601 785 601 761.8 601C738.7 601 715.3 601 692.2 601C669 601 646 601 623 601C600 601 577 601 554 601C531 601 508 601 484.8 601C461.7 601 438.3 601 415.2 601C392 601 369 601 346 601C323 601 300 601 277 601C254 601 231 601 207.8 601C184.7 601 161.3 601 138.2 601C115 601 92 601 69 601C46 601 23 601 11.5 601L0 601Z" fill="#715df2"></path></svg>